<?xml version="1.0" encoding="utf-8"?>
<!-- Generator: Adobe Illustrator 23.0.3, SVG Export Plug-In . SVG Version: 6.00 Build 0)  -->
<svg version="1.1" id="Layer_1" xmlns="http://www.w3.org/2000/svg" xmlns:xlink="http://www.w3.org/1999/xlink" x="0px" y="0px"
	 viewBox="0 0 512 512" style="enable-background:new 0 0 512 512;" xml:space="preserve">
<style type="text/css">
	.st0{fill-rule:evenodd;clip-rule:evenodd;fill:#97588D;}
	.st1{fill-rule:evenodd;clip-rule:evenodd;fill:#532B57;}
	.st2{fill-rule:evenodd;clip-rule:evenodd;fill:#FFFFFF;}
</style>
<polygon class="st0" points="256,106 321,143 386,181 386,256 386,331 321,369 256,406 191,369 126,331 126,256 126,181 191,143 "/>
<polygon class="st1" points="256,406 191,369 126,331 126,256 126,181 191,143 256,106 "/>
<polygon class="st0" points="256,131 310,162 364,193 364,256 364,319 310,350 256,381 202,350 148,319 148,256 148,193 202,162 "/>
<g id="_660852048">
	<path class="st2" d="M225,192c-7,0-15,3-20,8c-3,2-4,3-6,6c-4,5-6,11-7,17c-1,5,0,26,0,32s0,11,0,16c0,15-2,24,8,36l2,2
		c0,1,0,1,1,1c1,2,6,5,8,6c11,5,17,4,28,4h32c11,0,19,2,29-3c3-2,4-3,7-5l2-2c3-2,6-6,7-9c5-11,4-16,4-28v-32c0-15,2-24-8-36
		c-3-4-7-7-11-9s-7-3-12-4s-26,0-32,0s-11,0-16,0S230,191,225,192z M226,204c-6,1-10,3-14,6l-3,3c-5,7-5,12-5,21v39c0,10-1,17,5,25
		c1,2,3,4,4,5c7,5,12,5,21,5c5,0,49,0,52,0c5-1,9-2,12-5l3-2c7-8,7-14,7-23v-39c0-9,1-16-3-23c-2-2-2-2-3-4c0-1-1-1-2-1c0-1-1-2-1-2
		c-7-5-11-5-21-5c-13,0-26,0-39,0C235,204,230,204,226,204z"/>
	<path class="st2" d="M252,223c-7,0-14,4-20,9c-7,7-11,18-9,28c2,17,17,32,37,29c27-3,41-38,18-59c-3-2-7-4-11-6
		C262,223,258,222,252,223z M253,235c-10,1-20,11-18,24c1,10,11,20,24,18c10-1,20-11,18-24C276,243,266,234,253,235z"/>
	<path class="st2" d="M289,214c-4,1-7,4-6,9c0,4,4,7,8,7c4-1,8-5,7-9S294,214,289,214z"/>
</g>
</svg>
