<?xml version="1.0" encoding="utf-8"?>
<!-- Generator: Adobe Illustrator 23.0.3, SVG Export Plug-In . SVG Version: 6.00 Build 0)  -->
<svg version="1.1" id="Layer_1" xmlns="http://www.w3.org/2000/svg" xmlns:xlink="http://www.w3.org/1999/xlink" x="0px" y="0px"
	 viewBox="0 0 512 512" style="enable-background:new 0 0 512 512;" xml:space="preserve">
<style type="text/css">
	.st0{fill-rule:evenodd;clip-rule:evenodd;fill:#97588D;}
	.st1{fill-rule:evenodd;clip-rule:evenodd;fill:#532B57;}
	.st2{fill-rule:evenodd;clip-rule:evenodd;fill:#FDFEFE;}
</style>
<polygon class="st0" points="256,106 321,143 386,181 386,256 386,331 321,369 256,406 191,369 126,331 126,256 126,181 191,143 "/>
<polygon class="st1" points="256,406 191,369 126,331 126,256 126,181 191,143 256,106 "/>
<polygon class="st0" points="256,131 310,162 364,193 364,256 364,319 310,350 256,381 202,350 148,319 148,256 148,193 202,162 "/>
<g id="_667079520">
	<path class="st2" d="M243,308h25v-48c0-9,4-13,12-13c9,0,13,4,13,13v48h24v-42c0-28-4-47-33-44c-13,2-13,7-16,11v-11h-25V308z"/>
	<polygon class="st2" points="206,308 231,308 231,222 206,222 	"/>
	<path class="st2" d="M216,191c-16,4-10,28,6,24C237,212,232,188,216,191z"/>
</g>
</svg>
