<?xml version="1.0" ?><!DOCTYPE svg  PUBLIC '-//W3C//DTD SVG 1.1//EN'  'http://www.w3.org/Graphics/SVG/1.1/DTD/svg11.dtd'><svg height="512px" style="shape-rendering:geometricPrecision; text-rendering:geometricPrecision; image-rendering:optimizeQuality; fill-rule:evenodd; clip-rule:evenodd" version="1.1" viewBox="0 0 512 512" width="512px" xml:space="preserve" xmlns="http://www.w3.org/2000/svg" xmlns:xlink="http://www.w3.org/1999/xlink"><defs><style type="text/css">
   <![CDATA[
    .fil0 {fill:none}
    .fil2 {fill:#5097D3}
    .fil1 {fill:#64A9DC}
    .fil3 {fill:#FEFEFF}
   ]]>
  </style></defs><g id="Layer_x0020_1"><rect class="fil0" height="512" width="512"/><polygon class="fil1" points="256,106 321,143 386,181 386,256 386,331 321,369 256,406 191,369 126,331 126,256 126,181 191,143 "/><polygon class="fil2" points="256,406 191,369 126,331 126,256 126,181 191,143 256,106 "/><polygon class="fil1" points="256,131 310,162 364,193 364,256 364,319 310,350 256,381 202,350 148,319 148,256 148,193 202,162 "/><path class="fil3" d="M274 231l-1 1c-2,2 -5,4 -7,6 -2,3 -5,5 -7,7l-1 1 -18 16 0 0c-1,1 -2,2 -3,2l-7 7c-1,1 -1,1 -2,2 -3,2 -4,1 -3,10l-1 2 0 9 -1 2 0 3 0 1 -1 0 0 -1 0 -1 -5 -16 0 0 -3 -9 0 0 -3 -9 1 -1 1 0 6 -4 0 -1c4,-2 8,-5 12,-7 2,-1 4,-2 6,-4 2,-1 4,-2 6,-3l0 -1 7 -4 0 0c4,-2 8,-5 12,-7 4,-3 8,-6 12,-8l0 0 7 -4 0 -1c2,0 4,-2 6,-1 0,2 -1,3 -3,4l-10 9zm26 -33l-1 0 -4 2 -1 0 -20 8 0 0 -5 2 0 0 -21 8 0 0 -4 1 -1 1 -20 8 -1 0 -4 1 0 1 -21 7 0 1 -21 7 0 1c-3,1 -9,4 -6,8 1,0 0,0 0,0 2,1 2,2 4,2l1 0 5 2 1 0 5 2 0 0 8 2 1 1 5 1 1 0c1,1 2,1 3,1 2,1 2,1 2,3l1 0 0 1 0 0 5 17 0 0 6 16 0 1 0 0 0 1c1,2 1,4 3,4 2,1 4,1 6,0 1,-1 6,-6 7,-7l1 -1 10 -10c0,0 1,-1 1,1 2,0 3,2 5,3l1 1c2,1 5,4 8,6l0 0c3,2 5,4 8,6l0 0c3,2 6,4 9,6l0 1 2 1 0 0c5,2 8,1 10,-3 1,-2 3,-10 3,-12l0 -1 2 -11 1 -1 2 -11 0 -1 3 -11 0 -1 2 -11 1 -1 2 -11 0 -1 2 -11 1 -1 2 -11 0 -1 1 -5 0 0c1,-3 1,-5 1,-8 0,-3 -1,-4 -3,-5l-1 -1c-4,-1 -5,1 -8,2z"/></g></svg>