<?xml version="1.0" encoding="utf-8"?>
<!-- Generator: Adobe Illustrator 23.0.3, SVG Export Plug-In . SVG Version: 6.00 Build 0)  -->
<svg version="1.1" id="Layer_1" xmlns="http://www.w3.org/2000/svg" xmlns:xlink="http://www.w3.org/1999/xlink" x="0px" y="0px"
	 viewBox="0 0 512 512" style="enable-background:new 0 0 512 512;" xml:space="preserve">
<style type="text/css">
	.st0{fill:none;}
	.st1{fill-rule:evenodd;clip-rule:evenodd;fill:#97588D;}
	.st2{fill-rule:evenodd;clip-rule:evenodd;fill:#532B57;}
	.st3{fill-rule:evenodd;clip-rule:evenodd;fill:#FFFFFF;}
</style>
<rect class="st0" width="512" height="512"/>
<rect class="st0" width="512" height="512"/>
<polygon class="st1" points="256,106 321,143 386,181 386,256 386,331 321,369 256,406 191,369 126,331 126,256 126,181 191,143 "/>
<polygon class="st2" points="256,406 191,369 126,331 126,256 126,181 191,143 256,106 "/>
<polygon class="st1" points="256,131 310,162 364,193 364,256 364,319 310,350 256,381 202,350 148,319 148,256 148,193 202,162 "/>
<path class="st3" d="M255,235c-15,1-35-8-46-17c-1-2-3-3-5-5c-1-1-2-2-3-3s-1-2-2-3c-2,2-3,7-3,10c-2,8,1,17,7,23c1,1,1,1,2,2
	c1,0,1,1,2,1c-6,0-8-2-12-3c0,14,10,24,21,27c-2,2-9,1-11,0c2,11,13,19,25,19c-2,3-13,8-17,9c-8,3-13,3-23,3c1,1,7,4,9,4
	c3,2,6,3,9,4c22,7,45,4,64-8c11-6,20-16,26-27c8-14,10-26,10-42c4-2,11-10,14-14c-4,1-8,4-15,4c1-1,2-2,3-3c3-2,7-8,8-12
	c-4,2-5,4-15,6c-3,1-2,0-4-1c-13-10-30-8-39,4C255,219,253,226,255,235z"/>
</svg>
